ffmpeg started on 2016-11-26 at 19:13:44
Report written to "Output/NVENCh264/results/ffmpeg/old_town_cross_2160p50ll10000k.log"
Command line:
Tools/ffmpeg/ffmpeg -benchmark -y -i Input/y4m/old_town_cross_2160p50.y4m -c:v h264_nvenc -preset ll -b:v 10000k -an Output/NVENCh264/encoded/old_town_cross_2160p50ll10000k.mkv
ffmpeg version N-82227-gdb23fde Copyright (c) 2000-2016 the FFmpeg developers
  built with gcc 5.4.0 (Ubuntu 5.4.0-6ubuntu1~16.04.2) 20160609
  configuration: --prefix=/home/jaroslav/ffmpeg_build --pkg-config-flags=--static --extra-cflags=-I/home/jaroslav/ffmpeg_build/include --extra-ldflags=-L/home/jaroslav/ffmpeg_build/lib --bindir=/home/jaroslav/bin --enable-gpl --enable-libass --enable-libfdk-aac --enable-libfreetype --enable-libmp3lame --enable-libopus --enable-libtheora --enable-libvorbis --enable-libvpx --enable-libx264 --enable-libx265 --enable-nvenc --enable-libmfx --enable-libxvid --enable-libgsm --enable-libopencore-amrnb --enable-version3 --enable-nonfree
  libavutil      55. 35.100 / 55. 35.100
  libavcodec     57. 66.101 / 57. 66.101
  libavformat    57. 57.100 / 57. 57.100
  libavdevice    57.  2.100 / 57.  2.100
  libavfilter     6. 66.100 /  6. 66.100
  libswscale      4.  3.100 /  4.  3.100
  libswresample   2.  4.100 /  2.  4.100
  libpostproc    54.  2.100 / 54.  2.100
Input #0, yuv4mpegpipe, from 'Input/y4m/old_town_cross_2160p50.y4m':
  Duration: 00:00:10.00, start: 0.000000, bitrate: 4976642 kb/s
    Stream #0:0: Video: rawvideo (I420 / 0x30323449), yuv420p(progressive), 3840x2160, SAR 1:1 DAR 16:9, 50 fps, 50 tbr, 50 tbn, 50 tbc
[h264_nvenc @ 0x3949120] The variable bitrate rate-control requires the 'qmin' and/or 'qmax' option set.
Output #0, matroska, to 'Output/NVENCh264/encoded/old_town_cross_2160p50ll10000k.mkv':
  Metadata:
    encoder         : Lavf57.57.100
    Stream #0:0: Video: h264 (h264_nvenc) (Main) (H264 / 0x34363248), yuv420p, 3840x2160 [SAR 1:1 DAR 16:9], q=-1--1, 10000 kb/s, 50 fps, 1k tbn, 50 tbc
    Metadata:
      encoder         : Lavc57.66.101 h264_nvenc
    Side data:
      cpb: bitrate max/min/avg: 0/0/10000000 buffer size: 20000000 vbv_delay: -1
Stream mapping:
  Stream #0:0 -> #0:0 (rawvideo (native) -> h264 (h264_nvenc))
Press [q] to stop, [?] for help
frame=    9 fps=0.0 q=0.0 size=       0kB time=00:00:00.00 bitrate=N/A speed=   0x    frame=   27 fps= 26 q=0.0 size=       0kB time=00:00:00.00 bitrate=N/A speed=   0x    frame=   38 fps= 23 q=36.0 size=       1kB time=00:00:00.14 bitrate=  42.4kbits/s speed=0.0862x    frame=   56 fps= 26 q=33.0 size=       1kB time=00:00:00.50 bitrate=  11.9kbits/s speed=0.233x    frame=   74 fps= 28 q=33.0 size=       1kB time=00:00:00.86 bitrate=   7.0kbits/s speed=0.323x    frame=   92 fps= 29 q=32.0 size=       1kB time=00:00:01.22 bitrate=   4.9kbits/s speed=0.384x    frame=  110 fps= 30 q=33.0 size=       1kB time=00:00:01.58 bitrate=   3.8kbits/s speed=0.428x    frame=  128 fps= 30 q=32.0 size=       1kB time=00:00:01.94 bitrate=   3.1kbits/s speed=0.461x    frame=  146 fps= 31 q=34.0 size=       1kB time=00:00:02.30 bitrate=   2.6kbits/s speed=0.487x    frame=  164 fps= 31 q=33.0 size=       1kB time=00:00:02.66 bitrate=   2.2kbits/s speed=0.508x    frame=  182 fps= 32 q=32.0 size=       1kB time=00:00:03.02 bitrate=   2.0kbits/s speed=0.525x    frame=  200 fps= 32 q=32.0 size=       1kB time=00:00:03.38 bitrate=   1.8kbits/s speed=0.54x    frame=  218 fps= 32 q=31.0 size=       1kB time=00:00:03.74 bitrate=   1.6kbits/s speed=0.552x    frame=  236 fps= 32 q=32.0 size=       1kB time=00:00:04.10 bitrate=   1.5kbits/s speed=0.562x    frame=  253 fps= 32 q=32.0 size=    5127kB time=00:00:04.44 bitrate=9457.8kbits/s speed=0.57x    frame=  271 fps= 33 q=34.0 size=    5127kB time=00:00:04.80 bitrate=8748.6kbits/s speed=0.578x    frame=  289 fps= 33 q=34.0 size=    6090kB time=00:00:05.16 bitrate=9667.4kbits/s speed=0.585x    frame=  307 fps= 33 q=32.0 size=    6090kB time=00:00:05.52 bitrate=9037.0kbits/s speed=0.592x    frame=  325 fps= 33 q=35.0 size=    6090kB time=00:00:05.88 bitrate=8483.8kbits/s speed=0.597x    frame=  343 fps= 33 q=33.0 size=    6090kB time=00:00:06.24 bitrate=7994.4kbits/s speed=0.603x    frame=  361 fps= 33 q=35.0 size=    6090kB time=00:00:06.60 bitrate=7558.4kbits/s speed=0.607x    frame=  379 fps= 33 q=35.0 size=    6090kB time=00:00:06.96 bitrate=7167.5kbits/s speed=0.611x    frame=  397 fps= 33 q=35.0 size=    6090kB time=00:00:07.32 bitrate=6815.1kbits/s speed=0.615x    frame=  415 fps= 33 q=34.0 size=    6090kB time=00:00:07.68 bitrate=6495.7kbits/s speed=0.619x    frame=  433 fps= 34 q=34.0 size=    6090kB time=00:00:08.04 bitrate=6204.9kbits/s speed=0.622x    frame=  440 fps= 33 q=35.0 size=    6090kB time=00:00:08.18 bitrate=6098.7kbits/s speed=0.608x    frame=  450 fps= 32 q=34.0 size=    6090kB time=00:00:08.38 bitrate=5953.1kbits/s speed=0.596x    frame=  457 fps= 31 q=33.0 size=    6090kB time=00:00:08.52 bitrate=5855.3kbits/s speed=0.585x    frame=  475 fps= 31 q=34.0 size=    6090kB time=00:00:08.88 bitrate=5618.0kbits/s speed=0.589x    frame=  481 fps= 30 q=31.0 size=    6090kB time=00:00:09.00 bitrate=5543.1kbits/s speed=0.565x    frame=  488 fps= 30 q=32.0 size=    6090kB time=00:00:09.14 bitrate=5458.2kbits/s speed=0.556x    frame=  500 fps= 30 q=32.0 Lsize=   12210kB time=00:00:09.98 bitrate=10021.4kbits/s speed=0.592x    
video:12205kB audio:0kB subtitle:0kB other streams:0kB global headers:0kB muxing overhead: 0.037421%
bench: utime=1.184s
bench: maxrss=1396784kB
